<?xml version="1.0" encoding="iso-8859-1"?>
<!-- Generator: Adobe Illustrator 19.0.0, SVG Export Plug-In . SVG Version: 6.00 Build 0)  -->
<svg version="1.1" id="Layer_1" xmlns="http://www.w3.org/2000/svg" xmlns:xlink="http://www.w3.org/1999/xlink" x="0px" y="0px"
	 viewBox="0 0 512 512" style="enable-background:new 0 0 512 512;" xml:space="preserve">
<path style="fill:#967342;" d="M430.668,510.109c-1.628,1.273-3.562,1.891-5.48,1.891c-2.646,0-5.264-1.173-7.02-3.418L256,301.261
	L93.832,508.582c-1.756,2.245-4.374,3.418-7.02,3.418c-1.919,0-3.851-0.618-5.48-1.891c-3.873-3.03-4.558-8.626-1.528-12.499
	l164.891-210.802L89.88,88.887c-3.03-3.873-2.346-9.47,1.527-12.499c3.872-3.03,9.469-2.346,12.499,1.527L256,272.355
	l152.093-194.44c3.031-3.875,8.627-4.557,12.499-1.527c3.873,3.03,4.557,8.626,1.527,12.499L267.304,286.809l164.891,210.802
	C435.226,501.483,434.542,507.08,430.668,510.109z"/>
<path style="fill:#CAA661;" d="M109.027,39.429c12.359,16.014,9.73,39.019-5.649,51.89c-0.396,0.337-0.798,0.667-1.219,0.987
	c-16.46,12.655-40.29,9.571-52.968-6.859l-19.123-24.78C17.392,44.24,20.482,20.451,36.933,7.795
	C53.39-4.86,77.225-1.776,89.903,14.65L109.027,39.429z M475.067,7.795c-16.456-12.655-40.292-9.571-52.97,6.855l-19.124,24.777
	c-12.359,16.014-9.73,39.019,5.649,51.89c0.396,0.337,0.798,0.667,1.219,0.987c16.46,12.655,40.29,9.571,52.968-6.859l19.124-24.78
	C494.609,44.24,491.517,20.451,475.067,7.795z"/>
<path style="fill:#825934;" d="M91.406,53.029c4.985,6.46,3.947,15.979-2.314,21.219l-0.135,0.114
	c-0.099,0.085-0.198,0.169-0.303,0.249l-0.063,0.048c-6.669,5.129-16.641,3.842-21.774-2.813L47.693,47.069
	c-2.492-3.23-3.572-7.272-3.039-11.381c0.533-4.115,2.612-7.756,5.85-10.247c2.759-2.123,6.084-3.145,9.397-3.145
	c4.695,0,9.368,2.056,12.379,5.957L91.406,53.029z M467.347,35.688c-0.533-4.115-2.612-7.756-5.85-10.247
	c-2.759-2.123-6.084-3.145-9.397-3.145c-4.695,0-9.368,2.056-12.379,5.957L420.596,53.03c-4.985,6.46-3.947,15.979,2.314,21.219
	l0.135,0.114c0.099,0.085,0.198,0.169,0.303,0.249l0.063,0.048c6.669,5.129,16.641,3.842,21.774-2.813L464.31,47.07
	C466.801,43.839,467.879,39.797,467.347,35.688z"/>
<path style="fill:#CAEEC5;" d="M168.148,168.858c9.031-40.124,44.936-70.104,87.848-70.104c42.919,0,78.82,29.979,87.855,70.104
	c14.04-9.03,30.758-14.274,48.699-14.274c49.725,0,90.042,40.245,90.042,89.887s-40.317,89.887-90.042,89.887
	c-13.905,0-27.069-3.15-38.827-8.766v144.584H158.279V325.592c-11.759,5.618-24.923,8.766-38.831,8.766
	c-49.729,0-90.04-40.245-90.04-89.887s40.31-89.887,90.04-89.887C137.39,154.585,154.108,159.828,168.148,168.858L168.148,168.858z"
	/>
<path style="fill:#BCDDB6;" d="M482.584,244.757c-0.156,49.509-40.406,89.601-90.035,89.601c-13.905,0-27.069-3.151-38.827-8.766
	v144.584H158.279V325.592c-11.759,5.618-24.923,8.766-38.831,8.766c-49.633,0-89.877-40.092-90.032-89.601
	c59.53,38.062,139.123,61.33,226.583,61.33S423.054,282.819,482.584,244.757z"/>
<path style="fill:#FF4328;" d="M353.721,400.696v69.479H158.279v-69.479H353.721z"/>
<path style="fill:#C13421;" d="M353.721,396.8v28.853H158.279V396.8H353.721z"/>
<g>
</g>
<g>
</g>
<g>
</g>
<g>
</g>
<g>
</g>
<g>
</g>
<g>
</g>
<g>
</g>
<g>
</g>
<g>
</g>
<g>
</g>
<g>
</g>
<g>
</g>
<g>
</g>
<g>
</g>
</svg>
